<svg width="24" height="29" viewBox="0 0 24 29" fill="none" xmlns="http://www.w3.org/2000/svg">
<path fill-rule="evenodd" clip-rule="evenodd" d="M2.69301 12.7692C3.93903 10.3684 6.91352 5.97656 12.0002 5.97656C17.0869 5.97656 20.0614 10.3684 21.3074 12.7692C21.6431 13.4162 21.811 13.7397 21.7925 14.265C21.7739 14.7904 21.5771 15.1118 21.1834 15.7548C19.7226 18.1408 16.3988 22.6108 12.0002 22.6108C7.60154 22.6108 4.27779 18.1408 2.81695 15.7548C2.42331 15.1118 2.2265 14.7904 2.20793 14.265C2.18937 13.7397 2.35725 13.4162 2.69301 12.7692ZM12.0002 19.0463C14.2093 19.0463 16.0002 16.9185 16.0002 14.2937C16.0002 11.6689 14.2093 9.54104 12.0002 9.54104C9.79105 9.54104 8.00019 11.6689 8.00019 14.2937C8.00019 16.9185 9.79105 19.0463 12.0002 19.0463Z" fill="#A68BC1"/>
</svg>
