<svg width="34" height="34" viewBox="0 0 34 34" fill="none" xmlns="http://www.w3.org/2000/svg">
<path fill-rule="evenodd" clip-rule="evenodd" d="M17.0002 33.6663C26.2049 33.6663 33.6668 26.2044 33.6668 16.9997C33.6668 7.79493 26.2049 0.333008 17.0002 0.333008C7.79542 0.333008 0.333496 7.79493 0.333496 16.9997C0.333496 26.2044 7.79542 33.6663 17.0002 33.6663ZM11.7967 19.9997H16.5002C16.7359 19.9997 16.8537 19.9997 16.9269 20.0729C17.0002 20.1461 17.0002 20.264 17.0002 20.4997V29.7295C17.0002 30.6202 17.0002 31.0655 17.1964 31.1088C17.3926 31.152 17.5797 30.7479 17.9539 29.9396L17.9539 29.9396L24.0186 16.8399C24.6103 15.5618 24.9061 14.9228 24.6112 14.4612C24.3163 13.9997 23.6121 13.9997 22.2036 13.9997H17.5002C17.2645 13.9997 17.1466 13.9997 17.0734 13.9265C17.0002 13.8532 17.0002 13.7354 17.0002 13.4997V4.2698C17.0002 3.37914 17.0002 2.93381 16.8039 2.89059C16.6077 2.84737 16.4206 3.25149 16.0464 4.05974L9.98176 17.1594C9.39004 18.4375 9.09418 19.0766 9.38911 19.5381C9.68404 19.9997 10.3883 19.9997 11.7967 19.9997Z" fill="#A68BC1"/>
</svg>
