<?xml version="1.0" encoding="UTF-8"?>
<svg version="1.1" viewBox="0 0 2048 1448" width="3508" height="2481" xmlns="http://www.w3.org/2000/svg">
<path transform="translate(1031,169)" d="m0 0 5 2 25 14 17 10 14 8 24 14 26 15 14 8 19 11 21 12 24 14 26 15 19 11 9 6 1 279 23 13 24 14 28 16 78 45 21 12 17 10 14 8 24 14 11 6 1 2v278l-9 6-19 11-13 8-11 6-14 8-24 14-23 13-24 14-28 16-24 14-14 8-20 12-11 6-7 4-5-1-17-10-14-8-24-14-23-13-24-14-78-45-14-8-19-11-21-12-5-2-16 9-24 14-28 16-62 36-28 16-26 15-17 10-23 13-15 9-5-1-16-9-38-22-13-8-11-6-35-20-45-26-48-28-23-13-10-6v-280l10-6 43-25 28-16 15-9 11-6 26-15 21-12 17-10 35-20 24-14 10-6h2v-280l14-8 19-11 21-12 19-11 26-15 48-28 25-14 17-10 14-8 20-12 11-6z" fill="#1488DA"/>
<path transform="translate(1029,170)" d="m0 0h3v279l-13 8-28 16-19 11-20 12-11 6-21 12-43 25-21 12-24 14-23 13-17 10v279l23 13 21 12 17 10 26 15 24 14 25 14 17 10 26 15 24 14 16 9 20 12v3l-16 9-24 14-28 16-62 36-28 16-26 15-17 10-23 13-15 9-5-1-16-9-38-22-13-8-11-6-35-20-45-26-48-28-23-13-10-6v-280l10-6 43-25 28-16 15-9 11-6 26-15 21-12 17-10 35-20 24-14 10-6h2v-280l14-8 19-11 21-12 19-11 26-15 48-28 25-14 17-10 14-8 20-12 11-6z" fill="#032B90"/>
<path transform="translate(1031,449)" d="m0 0 5 2 25 14 15 9 21 12 24 14 28 16 17 10 23 13 24 14 35 20 17 10 8 5v279l-48 28-23 13-21 12-17 10-26 15-21 12-17 10-35 20-17 10-15 9-5-2-26-15-24-14-25-14-17-10-78-45-19-11-21-12-17-10-10-6v-279l13-8 23-13 17-10 35-20 19-11 17-10 21-12 13-8 11-6 14-8 24-14 28-16z" fill="#FEFEFE"/>
<path transform="translate(1273,589)" d="m0 0h1l1 278 28 16 26 15 19 11 21 12 17 10 21 12 57 33 24 14 23 13 4 4-13 8-21 12-17 10-14 8-24 14-23 13-24 14-28 16-24 14-14 8-20 12-11 6-7 4-5-1-17-10-14-8-24-14-23-13-24-14-78-45-14-8-19-11-21-12-4-4 9-6 42-24 17-10 14-8 24-14 28-16 19-11 52-30 14-8 20-12h2z" fill="#1488DA"/>
<path transform="translate(788,867)" d="m0 0 6 1 42 24 17 10 26 15 24 14 25 14 17 10 26 15 24 14 16 9 20 12v3l-16 9-24 14-28 16-62 36-28 16-26 15-17 10-23 13-15 9-5-1-16-9-38-22-13-8-11-6-35-20-45-26-48-28-23-13-9-6v-2l35-20 67-39 25-14 10-6 26-15 14-8 24-14 26-15z" fill="#032B90"/>
<path transform="translate(788,588)" d="m0 0h3v279l-10 5-24 14-28 16-17 10-28 16-78 45-24 14-21 12-10 6h-2l-1 2v-280l10-6 43-25 28-16 15-9 11-6 26-15 21-12 17-10 35-20 24-14z" fill="#1488DA"/>
<path transform="translate(1273,588)" d="m0 0 6 2 19 11 24 14 28 16 78 45 21 12 17 10 14 8 24 14 11 6 1 2v278l-5-2-23-13-21-12-17-10-52-30-24-14-25-14-10-6-52-30-13-8z" fill="#032B90"/>
<path transform="translate(871,585)" d="m0 0h98l10 2 12 5 11 10 6 10 3 8v20l-4 11-7 10-9 7-2 1 12 6 10 9 6 10 3 11v18l-4 12-6 11-11 11-10 5-12 3-22 1h-84z" fill="#032C91"/>
<path transform="translate(1050,585)" d="m0 0h37l1 77 9-10 7-8 14-15 9-10 12-14 16-17 2-3h50l-6 7-7 8-15 15-7 8-15 15-7 8-8 9 2 4 11 18 22 34 10 16 11 17 7 11 6 9v2h-48l-14-25-12-21-15-26-6-10v-2l-28 28-1 56h-37z" fill="#032E92"/>
<path transform="translate(1137,797)" d="m0 0h22l11 41 1 1 11-42h22v69h-14l-1-43-11 43h-15l-11-44-1 44h-14z" fill="#1488DA"/>
<path transform="translate(907,687)" d="m0 0h41l14 1 9 3 6 4 5 10v13l-4 8-7 6-8 2-9 1h-46l-1-1z" fill="#FEFEFE"/>
<path transform="translate(908,615)" d="m0 0h42l12 1 8 5 4 5 1 2v15l-4 6-5 4-9 3h-50v-40z" fill="#FEFEFE"/>
<path transform="translate(921,797)" d="m0 0h38l7 3 7 8 1 4v12l-4 9-6 5-9 2h-20v26h-14z" fill="#1488DA"/>
<path transform="translate(999,797)" d="m0 0h15v26h26v-26h14v69h-14v-30h-26v30h-15z" fill="#1488DA"/>
<path transform="translate(1094,795)" d="m0 0h8l11 3 10 9 3 7v3l-14 3-5-8-6-3h-8l-7 4-4 9v18l3 8 5 4 2 1h10l6-4 4-9 12 3 2 1-1 6-6 10-10 6-4 1h-14l-9-3-8-7-4-5-3-7-1-5v-16l3-12 6-8 8-6z" fill="#1488DA"/>
<path transform="translate(858,797)" d="m0 0h55v12h-21v57h-14v-57h-20z" fill="#1488DA"/>
<path transform="translate(935,809)" d="m0 0h15l6 2 3 4v7l-5 5-3 1h-15l-1-1z" fill="#FEFEFE"/>
<path transform="translate(973,852)" d="m0 0h13v14h-13z" fill="#1488DA"/>
</svg>
